<?xml version="1.0" ?>
<!-- Uploaded to: SVG Repo, www.svgrepo.com, Generator: SVG Repo Mixer Tools -->
<svg width="800px" height="800px" viewBox="0 0 32 32" xmlns="http://www.w3.org/2000/svg">
<defs>
<style>.cls-1{fill:#8c9eff;}.cls-2{fill:#5f7cf9;}</style>
</defs>
<title/>
<g id="Download">
<path class="cls-1" d="M15,7V22.86l-4.36-3.63a1,1,0,0,0-1.28,1.54l6,5,.15.09.13.07A1,1,0,0,0,16,26h0a1,1,0,0,0,.36-.07l.13-.07.15-.09,6-5A1,1,0,0,0,23,20a1,1,0,0,0-.23-.64,1,1,0,0,0-1.41-.13L17,22.86V7a1,1,0,0,0-2,0Z"/>
<path class="cls-2" d="M16.36,25.93l.13-.07.15-.09,6-5A1,1,0,0,0,23,20a1,1,0,0,0-.23-.64,1,1,0,0,0-1.41-.13L17,22.86V7a1,1,0,0,0-1-1V26h0A1,1,0,0,0,16.36,25.93Z"/>
</g>
</svg>